<?xml version="1.0" encoding="UTF-8"?>
<svg xmlns="http://www.w3.org/2000/svg" xmlns:xlink="http://www.w3.org/1999/xlink" viewBox="0 0 50 50" width="30px" height="30px">
<g id="surface20584876">
<path style=" stroke:none;fill-rule:nonzero;fill:rgb(100%,100%,100%);fill-opacity:1;" d="M 41 4 L 9 4 C 6.238281 4 4 6.238281 4 9 L 4 41 C 4 43.761719 6.238281 46 9 46 L 41 46 C 43.761719 46 46 43.761719 46 41 L 46 9 C 46 6.238281 43.761719 4 41 4 Z M 21 36 C 21 37.101562 20.101562 38 19 38 L 12 38 C 10.898438 38 10 37.101562 10 36 L 10 12 C 10 10.898438 10.898438 10 12 10 L 19 10 C 20.101562 10 21 10.898438 21 12 Z M 40 24 C 40 25.101562 39.101562 26 38 26 L 31 26 C 29.898438 26 29 25.101562 29 24 L 29 12 C 29 10.898438 29.898438 10 31 10 L 38 10 C 39.101562 10 40 10.898438 40 12 Z M 40 24 "/>
</g>
</svg>
